C:\Users\israe\Dropbox\PhDWork\ExperimentalData\subject14\145\P14S145W02_filtered35.mot
nRows=13
nColumns=28

name C:\Users\israe\Dropbox\PhDWork\ExperimentalData\subject14\145\P14S145W02_filtered35.mot
datacolumns 28
datarows 13
range 0.5370000000 0.5490000000
endheader
time	ground_force_1_vx	ground_force_1_vy	ground_force_1_vz	ground_force_1_px	ground_force_1_py	ground_force_1_pz	ground_moment_1_mx	ground_moment_1_my	ground_moment_1_mz	ground_force_2_vx	ground_force_2_vy	ground_force_2_vz	ground_force_2_px	ground_force_2_py	ground_force_2_pz	ground_moment_2_mx	ground_moment_2_my	ground_moment_2_mz	ground_force_3_vx	ground_force_3_vy	ground_force_3_vz	ground_force_3_px	ground_force_3_py	ground_force_3_pz	ground_moment_3_mx	ground_moment_3_my	ground_moment_3_mz
        0.5370000000	       -0.0000000000	        0.0000000000	        0.0000000000	        0.1988394961	        0.0000558755	       -0.3004071324	       -0.0000000000	       -0.0000000000	       -0.0000000000	        0.0000000053	        0.0000000000	       -0.0000000153	        0.2029003516	       -0.0000795827	        0.4543649445	       -0.0000000008	       -0.0000000011	        0.0000000020	      -18.7340550279	      466.1038482398	      -26.0323683007	        0.2076431971	        0.0000770316	        1.3583900146	       84.2293527904	       11.2060726474	       45.8816009219	
        0.5380000000	       -0.0000000000	        0.0000000000	        0.0000000000	        0.1988394961	        0.0000558755	       -0.3004071324	       -0.0000000000	       -0.0000000000	        0.0000000000	        0.0000000036	        0.0000000000	       -0.0000000301	        0.2029003516	       -0.0000795827	        0.4543649445	       -0.0000000010	       -0.0000000020	        0.0000000001	      -19.1316989089	      471.2986737080	      -27.2579835842	        0.2076431971	        0.0000770316	        1.3583900146	       85.2446624233	       11.4568847712	       46.3779230828	
        0.5390000000	       -0.0000000000	        0.0000000000	        0.0000000000	        0.1988394961	        0.0000558755	       -0.3004071324	        0.0000000000	       -0.0000000000	        0.0000000000	        0.0000000007	        0.0000000513	       -0.0000000491	        0.2029003516	       -0.0000795827	        0.4543649445	       -0.0000000013	       -0.0000000030	       -0.0000000026	      -19.5372168910	      476.5206719532	      -28.5218928330	        0.2076431971	        0.0000770316	        1.3583900146	       86.2601087682	       11.7106940248	       46.8751192489	
        0.5400000000	       -0.0000000000	        0.0000000000	       -0.0000000000	        0.1988394961	        0.0000558755	       -0.3004071324	        0.0000000000	       -0.0000000000	        0.0000000000	       -0.0000000035	        0.0000001503	       -0.0000000726	        0.2029003516	       -0.0000795827	        0.4543649445	       -0.0000000015	       -0.0000000043	       -0.0000000063	      -19.9487521404	      481.7564581698	      -29.8242980797	        0.2076431971	        0.0000770316	        1.3583900146	       87.2757253102	       11.9671902197	       47.3723534479	
        0.5410000000	       -0.0000000000	        0.0000000000	       -0.0000000000	        0.1988394961	        0.0000558755	       -0.3004071324	        0.0000000000	       -0.0000000000	        0.0000000000	       -0.0000000095	        0.0000002822	       -0.0000001005	        0.2029003516	       -0.0000795827	        0.4543649445	       -0.0000000016	       -0.0000000058	       -0.0000000112	      -20.3651877651	      486.9969089665	      -31.1647967789	        0.2076431971	        0.0000770316	        1.3583900146	       88.2920665048	       12.2261561035	       47.8687438166	
        0.5420000000	       -0.0000000000	        0.0000000000	       -0.0000000000	        0.1988394961	        0.0000558755	       -0.3004071324	        0.0000000000	       -0.0000000000	        0.0000000000	       -0.0000000174	        0.0000004506	       -0.0000001323	        0.2029003516	       -0.0000795827	        0.4543649445	       -0.0000000017	       -0.0000000075	       -0.0000000175	      -20.7851592876	      492.2381749180	      -32.5418745709	        0.2076431971	        0.0000770316	        1.3583900146	       89.3099046566	       12.4875235337	       48.3634464558	
        0.5430000000	        0.0000000000	        0.0000000000	       -0.0000000000	        0.1988394961	        0.0000558755	       -0.3004071324	        0.0000000000	       -0.0000000000	        0.0000000000	       -0.0000000275	        0.0000006571	       -0.0000001669	        0.2029003516	       -0.0000795827	        0.4543649445	       -0.0000000017	       -0.0000000093	       -0.0000000250	      -21.2066290573	      497.4776049358	      -33.9533289708	        0.2076431971	        0.0000770316	        1.3583900146	       90.3298565650	       12.7513538179	       48.8558601277	
        0.5440000000	        0.0000000000	        0.0000000000	       -0.0000000000	        0.1988394961	        0.0000558755	       -0.3004071324	        0.0000000000	       -0.0000000000	        0.0000000000	       -0.0000000398	        0.0000009006	       -0.0000002026	        0.2029003516	       -0.0000795827	        0.4543649445	       -0.0000000016	       -0.0000000110	       -0.0000000339	      -21.6276409041	      502.7103096612	      -35.3969985403	        0.2076431971	        0.0000770316	        1.3583900146	       91.3521653699	       13.0177691674	       49.3456596992	
        0.5450000000	        0.0000000000	        0.0000000000	       -0.0000000000	        0.1988394961	        0.0000558755	       -0.3004071324	        0.0000000000	       -0.0000000000	        0.0000000000	       -0.0000000542	        0.0000011763	       -0.0000002364	        0.2029003516	       -0.0000795827	        0.4543649445	       -0.0000000012	       -0.0000000126	       -0.0000000437	      -22.0471908370	      507.9297523463	      -36.8710428481	        0.2076431971	        0.0000770316	        1.3583900146	       92.3767327805	       13.2869031326	       49.8326229265	
        0.5460000000	        0.0000000000	        0.0000000000	       -0.0000000000	        0.1988394961	        0.0000558755	       -0.3004071324	        0.0000000000	       -0.0000000000	        0.0000000000	       -0.0000000705	        0.0000014738	       -0.0000002644	        0.2029003516	       -0.0000795827	        0.4543649445	       -0.0000000005	       -0.0000000138	       -0.0000000542	      -22.4652864497	      513.1290294174	      -38.3739398938	        0.2076431971	        0.0000770316	        1.3583900146	       93.4031877416	       13.5588702523	       50.3165621813	
        0.5470000000	        0.0000000000	        0.0000000000	       -0.0000000000	        0.1988394961	        0.0000558755	       -0.3004071324	        0.0000000000	       -0.0000000000	        0.0000000000	       -0.0000000879	        0.0000017762	       -0.0000002812	        0.2029003516	       -0.0000795827	        0.4543649445	        0.0000000006	       -0.0000000142	       -0.0000000647	      -22.8824942790	      518.3013225496	      -39.9044660225	        0.2076431971	        0.0000770316	        1.3583900146	       94.4308121069	       13.8337476602	       50.7973883998	
        0.5480000000	        0.0000000000	        0.0000000000	       -0.0000000000	        0.1988394961	        0.0000558755	       -0.3004071324	        0.0000000000	       -0.0000000000	        0.0000000000	       -0.0000001055	        0.0000020576	       -0.0000002801	        0.2029003516	       -0.0000795827	        0.4543649445	        0.0000000021	       -0.0000000136	       -0.0000000742	      -23.2996552219	      523.4412427292	      -41.4619271823	        0.2076431971	        0.0000770316	        1.3583900146	       95.4585054048	       14.1115199033	       51.2752051600	
        0.5490000000	        0.0000000000	        0.0000000000	       -0.0000000000	        0.1988394961	        0.0000558755	       -0.3004071324	        0.0000000000	       -0.0000000000	        0.0000000000	       -0.0000001217	        0.0000022823	       -0.0000002525	        0.2029003516	       -0.0000795827	        0.4543649445	        0.0000000042	       -0.0000000114	       -0.0000000813	      -23.7178642519	      528.5458090905	      -43.0463242007	        0.2076431971	        0.0000770316	        1.3583900146	       96.4849563823	       14.3919659665	       51.7503944926	
